<svg xmlns="http://www.w3.org/2000/svg" xmlns:xlink="http://www.w3.org/1999/xlink" width="500" zoomAndPan="magnify" viewBox="0 0 375 374.999991" height="500" preserveAspectRatio="xMidYMid meet" version="1.0"><defs><g/><clipPath id="5b74302fee"><path d="M 106.390625 69.054688 L 268.390625 69.054688 L 268.390625 231 L 106.390625 231 Z M 106.390625 69.054688 " clip-rule="nonzero"/></clipPath><clipPath id="d4969afbd9"><path d="M 111 150 L 268.390625 150 L 268.390625 164 L 111 164 Z M 111 150 " clip-rule="nonzero"/></clipPath></defs><rect x="-37.5" width="450" fill="#ffffff" y="-37.499999" height="449.999989" fill-opacity="1"/><rect x="-37.5" width="450" fill="#ffffff" y="-37.499999" height="449.999989" fill-opacity="1"/><g fill="#004aad" fill-opacity="1"><g transform="translate(58.219609, 282.746261)"><g><path d="M 9.265625 -30.828125 L 9.265625 -6.171875 L 19.890625 -6.171875 L 19.890625 0 L 2.25 0 L 2.25 -30.828125 Z M 9.265625 -30.828125 "/></g></g></g><g fill="#004aad" fill-opacity="1"><g transform="translate(83.072112, 282.746261)"><g><path d="M 17.90625 -30.828125 L 30.34375 0 L 22.796875 0 L 20.515625 -6.171875 L 8.78125 -6.171875 L 6.5 0 L -1.046875 0 L 11.40625 -30.828125 Z M 18.125 -12.328125 L 14.6875 -21.296875 L 14.609375 -21.296875 L 11.171875 -12.328125 Z M 18.125 -12.328125 "/></g></g></g><g fill="#004aad" fill-opacity="1"><g transform="translate(116.10888, 282.746261)"><g><path d="M 2.25 -30.828125 L 13.5 -30.828125 C 16.632812 -30.828125 19.171875 -30.015625 21.109375 -28.390625 C 23.054688 -26.773438 24.03125 -24.421875 24.03125 -21.328125 C 24.03125 -18.242188 23.046875 -15.820312 21.078125 -14.0625 C 19.109375 -12.3125 16.582031 -11.4375 13.5 -11.4375 L 9.265625 -11.4375 L 9.265625 0 L 2.25 0 Z M 9.265625 -17.046875 L 11.25 -17.046875 C 12.820312 -17.046875 14.109375 -17.363281 15.109375 -18 C 16.117188 -18.632812 16.625 -19.671875 16.625 -21.109375 C 16.625 -22.585938 16.117188 -23.644531 15.109375 -24.28125 C 14.109375 -24.914062 12.820312 -25.234375 11.25 -25.234375 L 9.265625 -25.234375 Z M 9.265625 -17.046875 "/></g></g></g><g fill="#004aad" fill-opacity="1"><g transform="translate(144.735862, 282.746261)"><g><path d="M 0.859375 -15.4375 C 0.859375 -19.894531 2.378906 -23.664062 5.421875 -26.75 C 8.460938 -29.84375 12.125 -31.390625 16.40625 -31.390625 C 20.71875 -31.390625 24.378906 -29.847656 27.390625 -26.765625 C 30.410156 -23.691406 31.921875 -19.914062 31.921875 -15.4375 C 31.921875 -10.925781 30.4375 -7.128906 27.46875 -4.046875 C 24.5 -0.972656 20.8125 0.5625 16.40625 0.5625 C 11.894531 0.5625 8.175781 -0.960938 5.25 -4.015625 C 2.320312 -7.066406 0.859375 -10.875 0.859375 -15.4375 Z M 8.453125 -15.4375 C 8.453125 -13.8125 8.695312 -12.332031 9.1875 -11 C 9.6875 -9.664062 10.554688 -8.535156 11.796875 -7.609375 C 13.046875 -6.691406 14.582031 -6.234375 16.40625 -6.234375 C 19.019531 -6.234375 20.992188 -7.128906 22.328125 -8.921875 C 23.660156 -10.722656 24.328125 -12.894531 24.328125 -15.4375 C 24.328125 -17.945312 23.644531 -20.101562 22.28125 -21.90625 C 20.925781 -23.71875 18.96875 -24.625 16.40625 -24.625 C 13.863281 -24.625 11.898438 -23.71875 10.515625 -21.90625 C 9.140625 -20.101562 8.453125 -17.945312 8.453125 -15.4375 Z M 8.453125 -15.4375 "/></g></g></g><g fill="#004aad" fill-opacity="1"><g transform="translate(181.248131, 282.746261)"><g><path d="M 2.25 -30.828125 L 13.265625 -30.828125 C 16.234375 -30.828125 18.648438 -30.035156 20.515625 -28.453125 C 22.390625 -26.878906 23.328125 -24.617188 23.328125 -21.671875 C 23.328125 -19.410156 22.757812 -17.507812 21.625 -15.96875 C 20.488281 -14.4375 18.945312 -13.363281 17 -12.75 L 27.625 0 L 18.6875 0 L 9.265625 -12.1875 L 9.265625 0 L 2.25 0 Z M 9.265625 -17.15625 L 10.09375 -17.15625 C 10.738281 -17.15625 11.285156 -17.164062 11.734375 -17.1875 C 12.179688 -17.21875 12.691406 -17.304688 13.265625 -17.453125 C 13.835938 -17.597656 14.296875 -17.804688 14.640625 -18.078125 C 14.992188 -18.359375 15.296875 -18.757812 15.546875 -19.28125 C 15.796875 -19.8125 15.921875 -20.445312 15.921875 -21.1875 C 15.921875 -21.9375 15.796875 -22.570312 15.546875 -23.09375 C 15.296875 -23.613281 14.992188 -24.007812 14.640625 -24.28125 C 14.296875 -24.5625 13.835938 -24.773438 13.265625 -24.921875 C 12.691406 -25.078125 12.179688 -25.164062 11.734375 -25.1875 C 11.285156 -25.21875 10.738281 -25.234375 10.09375 -25.234375 L 9.265625 -25.234375 Z M 9.265625 -17.15625 "/></g></g></g><g fill="#004aad" fill-opacity="1"><g transform="translate(211.743659, 282.746261)"><g/></g></g><g fill="#004aad" fill-opacity="1"><g transform="translate(225.683821, 282.746261)"><g><path d="M 2.25 -30.828125 L 13.5 -30.828125 C 16.632812 -30.828125 19.171875 -30.015625 21.109375 -28.390625 C 23.054688 -26.773438 24.03125 -24.421875 24.03125 -21.328125 C 24.03125 -18.242188 23.046875 -15.820312 21.078125 -14.0625 C 19.109375 -12.3125 16.582031 -11.4375 13.5 -11.4375 L 9.265625 -11.4375 L 9.265625 0 L 2.25 0 Z M 9.265625 -17.046875 L 11.25 -17.046875 C 12.820312 -17.046875 14.109375 -17.363281 15.109375 -18 C 16.117188 -18.632812 16.625 -19.671875 16.625 -21.109375 C 16.625 -22.585938 16.117188 -23.644531 15.109375 -24.28125 C 14.109375 -24.914062 12.820312 -25.234375 11.25 -25.234375 L 9.265625 -25.234375 Z M 9.265625 -17.046875 "/></g></g></g><g fill="#004aad" fill-opacity="1"><g transform="translate(254.310814, 282.746261)"><g><path d="M 17.90625 -30.828125 L 30.34375 0 L 22.796875 0 L 20.515625 -6.171875 L 8.78125 -6.171875 L 6.5 0 L -1.046875 0 L 11.40625 -30.828125 Z M 18.125 -12.328125 L 14.6875 -21.296875 L 14.609375 -21.296875 L 11.171875 -12.328125 Z M 18.125 -12.328125 "/></g></g></g><g fill="#004aad" fill-opacity="1"><g transform="translate(287.34757, 282.746261)"><g><path d="M 30.3125 0 L 20.625 0 L 9.265625 -13.078125 L 9.265625 0 L 2.25 0 L 2.25 -30.828125 L 9.265625 -30.828125 L 9.265625 -18.234375 L 19.84375 -30.828125 L 28.375 -30.828125 L 15.953125 -16.21875 Z M 30.3125 0 "/></g></g></g><g fill="#004aad" fill-opacity="1"><g transform="translate(69.810895, 302.641708)"><g><path d="M 0.984375 -8.359375 L 2.921875 -8.359375 L 2.921875 -1.578125 L 7.125 -1.578125 L 7.125 0 L 0.984375 0 Z M 0.984375 -8.359375 "/></g></g></g><g fill="#004aad" fill-opacity="1"><g transform="translate(81.804016, 302.641708)"><g><path d="M 6.5 -1.796875 L 2.625 -1.796875 L 1.875 0 L -0.109375 0 L 3.625 -8.359375 L 5.53125 -8.359375 L 9.28125 0 L 7.25 0 Z M 5.890625 -3.265625 L 4.5625 -6.46875 L 3.234375 -3.265625 Z M 5.890625 -3.265625 "/></g></g></g><g fill="#004aad" fill-opacity="1"><g transform="translate(95.731635, 302.641708)"><g><path d="M 5.015625 -2.96875 L 5.015625 0 L 3.078125 0 L 3.078125 -2.984375 L -0.171875 -8.359375 L 1.890625 -8.359375 L 4.125 -4.65625 L 6.359375 -8.359375 L 8.265625 -8.359375 Z M 5.015625 -2.96875 "/></g></g></g><g fill="#004aad" fill-opacity="1"><g transform="translate(108.584528, 302.641708)"><g><path d="M 6.5 -1.796875 L 2.625 -1.796875 L 1.875 0 L -0.109375 0 L 3.625 -8.359375 L 5.53125 -8.359375 L 9.28125 0 L 7.25 0 Z M 5.890625 -3.265625 L 4.5625 -6.46875 L 3.234375 -3.265625 Z M 5.890625 -3.265625 "/></g></g></g><g fill="#004aad" fill-opacity="1"><g transform="translate(122.512147, 302.641708)"><g><path d="M 8.671875 -8.359375 L 8.671875 0 L 7.078125 0 L 2.90625 -5.078125 L 2.90625 0 L 0.984375 0 L 0.984375 -8.359375 L 2.59375 -8.359375 L 6.75 -3.28125 L 6.75 -8.359375 Z M 8.671875 -8.359375 "/></g></g></g><g fill="#004aad" fill-opacity="1"><g transform="translate(136.941303, 302.641708)"><g><path d="M 6.5 -1.796875 L 2.625 -1.796875 L 1.875 0 L -0.109375 0 L 3.625 -8.359375 L 5.53125 -8.359375 L 9.28125 0 L 7.25 0 Z M 5.890625 -3.265625 L 4.5625 -6.46875 L 3.234375 -3.265625 Z M 5.890625 -3.265625 "/></g></g></g><g fill="#004aad" fill-opacity="1"><g transform="translate(150.868922, 302.641708)"><g><path d="M 8.671875 -8.359375 L 8.671875 0 L 7.078125 0 L 2.90625 -5.078125 L 2.90625 0 L 0.984375 0 L 0.984375 -8.359375 L 2.59375 -8.359375 L 6.75 -3.28125 L 6.75 -8.359375 Z M 8.671875 -8.359375 "/></g></g></g><g fill="#004aad" fill-opacity="1"><g transform="translate(165.298079, 302.641708)"><g/></g></g><g fill="#004aad" fill-opacity="1"><g transform="translate(173.458013, 302.641708)"><g><path d="M 8.609375 0 L 8.59375 -5.015625 L 6.125 -0.890625 L 5.265625 -0.890625 L 2.8125 -4.90625 L 2.8125 0 L 0.984375 0 L 0.984375 -8.359375 L 2.59375 -8.359375 L 5.71875 -3.171875 L 8.8125 -8.359375 L 10.40625 -8.359375 L 10.421875 0 Z M 8.609375 0 "/></g></g></g><g fill="#004aad" fill-opacity="1"><g transform="translate(189.642555, 302.641708)"><g><path d="M 6.5 -1.796875 L 2.625 -1.796875 L 1.875 0 L -0.109375 0 L 3.625 -8.359375 L 5.53125 -8.359375 L 9.28125 0 L 7.25 0 Z M 5.890625 -3.265625 L 4.5625 -6.46875 L 3.234375 -3.265625 Z M 5.890625 -3.265625 "/></g></g></g><g fill="#004aad" fill-opacity="1"><g transform="translate(203.570174, 302.641708)"><g><path d="M 3.734375 0.140625 C 3.078125 0.140625 2.4375 0.0507812 1.8125 -0.125 C 1.195312 -0.300781 0.703125 -0.535156 0.328125 -0.828125 L 0.984375 -2.28125 C 1.347656 -2.019531 1.773438 -1.804688 2.265625 -1.640625 C 2.765625 -1.484375 3.257812 -1.40625 3.75 -1.40625 C 4.300781 -1.40625 4.707031 -1.488281 4.96875 -1.65625 C 5.226562 -1.820312 5.359375 -2.039062 5.359375 -2.3125 C 5.359375 -2.507812 5.28125 -2.671875 5.125 -2.796875 C 4.976562 -2.929688 4.78125 -3.035156 4.53125 -3.109375 C 4.289062 -3.191406 3.960938 -3.28125 3.546875 -3.375 C 2.910156 -3.53125 2.390625 -3.679688 1.984375 -3.828125 C 1.578125 -3.984375 1.226562 -4.226562 0.9375 -4.5625 C 0.644531 -4.894531 0.5 -5.34375 0.5 -5.90625 C 0.5 -6.394531 0.628906 -6.832031 0.890625 -7.21875 C 1.160156 -7.613281 1.554688 -7.925781 2.078125 -8.15625 C 2.609375 -8.394531 3.257812 -8.515625 4.03125 -8.515625 C 4.5625 -8.515625 5.082031 -8.445312 5.59375 -8.3125 C 6.101562 -8.1875 6.550781 -8.003906 6.9375 -7.765625 L 6.328125 -6.296875 C 5.554688 -6.734375 4.785156 -6.953125 4.015625 -6.953125 C 3.472656 -6.953125 3.070312 -6.863281 2.8125 -6.6875 C 2.550781 -6.519531 2.421875 -6.289062 2.421875 -6 C 2.421875 -5.707031 2.570312 -5.492188 2.875 -5.359375 C 3.175781 -5.222656 3.632812 -5.085938 4.25 -4.953125 C 4.882812 -4.796875 5.40625 -4.640625 5.8125 -4.484375 C 6.21875 -4.335938 6.566406 -4.097656 6.859375 -3.765625 C 7.148438 -3.441406 7.296875 -3.003906 7.296875 -2.453125 C 7.296875 -1.972656 7.160156 -1.535156 6.890625 -1.140625 C 6.617188 -0.742188 6.21875 -0.429688 5.6875 -0.203125 C 5.15625 0.0234375 4.503906 0.140625 3.734375 0.140625 Z M 3.734375 0.140625 "/></g></g></g><g fill="#004aad" fill-opacity="1"><g transform="translate(215.969298, 302.641708)"><g><path d="M 5.015625 -2.96875 L 5.015625 0 L 3.078125 0 L 3.078125 -2.984375 L -0.171875 -8.359375 L 1.890625 -8.359375 L 4.125 -4.65625 L 6.359375 -8.359375 L 8.265625 -8.359375 Z M 5.015625 -2.96875 "/></g></g></g><g fill="#004aad" fill-opacity="1"><g transform="translate(228.822191, 302.641708)"><g><path d="M 6.5 -1.796875 L 2.625 -1.796875 L 1.875 0 L -0.109375 0 L 3.625 -8.359375 L 5.53125 -8.359375 L 9.28125 0 L 7.25 0 Z M 5.890625 -3.265625 L 4.5625 -6.46875 L 3.234375 -3.265625 Z M 5.890625 -3.265625 "/></g></g></g><g fill="#004aad" fill-opacity="1"><g transform="translate(242.74981, 302.641708)"><g><path d="M 6.328125 0 L 4.703125 -2.328125 L 2.921875 -2.328125 L 2.921875 0 L 0.984375 0 L 0.984375 -8.359375 L 4.609375 -8.359375 C 5.347656 -8.359375 5.988281 -8.234375 6.53125 -7.984375 C 7.082031 -7.742188 7.503906 -7.394531 7.796875 -6.9375 C 8.097656 -6.488281 8.25 -5.953125 8.25 -5.328125 C 8.25 -4.710938 8.097656 -4.175781 7.796875 -3.71875 C 7.492188 -3.269531 7.070312 -2.925781 6.53125 -2.6875 L 8.40625 0 Z M 6.28125 -5.328125 C 6.28125 -5.796875 6.128906 -6.15625 5.828125 -6.40625 C 5.523438 -6.664062 5.082031 -6.796875 4.5 -6.796875 L 2.921875 -6.796875 L 2.921875 -3.875 L 4.5 -3.875 C 5.082031 -3.875 5.523438 -4 5.828125 -4.25 C 6.128906 -4.507812 6.28125 -4.867188 6.28125 -5.328125 Z M 6.28125 -5.328125 "/></g></g></g><g fill="#004aad" fill-opacity="1"><g transform="translate(256.307247, 302.641708)"><g><path d="M 6.5 -1.796875 L 2.625 -1.796875 L 1.875 0 L -0.109375 0 L 3.625 -8.359375 L 5.53125 -8.359375 L 9.28125 0 L 7.25 0 Z M 5.890625 -3.265625 L 4.5625 -6.46875 L 3.234375 -3.265625 Z M 5.890625 -3.265625 "/></g></g></g><g fill="#004aad" fill-opacity="1"><g transform="translate(270.234877, 302.641708)"><g><path d="M 4.046875 -3.28125 L 2.921875 -2.109375 L 2.921875 0 L 0.984375 0 L 0.984375 -8.359375 L 2.921875 -8.359375 L 2.921875 -4.453125 L 6.625 -8.359375 L 8.78125 -8.359375 L 5.3125 -4.640625 L 8.984375 0 L 6.71875 0 Z M 4.046875 -3.28125 "/></g></g></g><g fill="#004aad" fill-opacity="1"><g transform="translate(283.852018, 302.641708)"><g><path d="M 6.5 -1.796875 L 2.625 -1.796875 L 1.875 0 L -0.109375 0 L 3.625 -8.359375 L 5.53125 -8.359375 L 9.28125 0 L 7.25 0 Z M 5.890625 -3.265625 L 4.5625 -6.46875 L 3.234375 -3.265625 Z M 5.890625 -3.265625 "/></g></g></g><g fill="#004aad" fill-opacity="1"><g transform="translate(297.779614, 302.641708)"><g><path d="M 2.71875 -6.796875 L 0.046875 -6.796875 L 0.046875 -8.359375 L 7.34375 -8.359375 L 7.34375 -6.796875 L 4.65625 -6.796875 L 4.65625 0 L 2.71875 0 Z M 2.71875 -6.796875 "/></g></g></g><g clip-path="url(#5b74302fee)"><path fill="#004aad" d="M 189.089844 230.609375 C 181.34375 231.058594 173.472656 230.277344 165.859375 228.304688 C 162.050781 227.328125 158.316406 226.03125 154.679688 224.476562 C 151.046875 222.917969 147.535156 221.058594 144.160156 218.964844 C 137.417969 214.761719 131.289062 209.515625 126.058594 203.453125 C 120.820312 197.394531 116.480469 190.523438 113.257812 183.132812 C 110.023438 175.746094 107.921875 167.847656 107.027344 159.800781 C 106.800781 157.789062 106.667969 155.769531 106.582031 153.746094 C 106.511719 151.722656 106.511719 149.695312 106.585938 147.667969 C 106.601562 147.164062 106.636719 146.65625 106.660156 146.152344 L 106.699219 145.390625 L 106.757812 144.632812 C 106.800781 144.128906 106.832031 143.621094 106.878906 143.117188 L 107.035156 141.601562 C 107.082031 141.097656 107.160156 140.597656 107.222656 140.09375 C 107.289062 139.589844 107.351562 139.085938 107.433594 138.585938 L 107.671875 137.082031 L 107.945312 135.582031 C 109.445312 127.597656 112.175781 119.832031 115.984375 112.640625 C 117.886719 109.042969 120.074219 105.597656 122.484375 102.316406 C 123.699219 100.683594 124.96875 99.089844 126.296875 97.546875 C 127.628906 96.011719 129.011719 94.515625 130.445312 93.070312 C 131.890625 91.636719 133.382812 90.253906 134.921875 88.921875 C 136.464844 87.59375 138.058594 86.328125 139.6875 85.109375 C 142.964844 82.695312 146.414062 80.511719 150.011719 78.605469 C 153.609375 76.707031 157.34375 75.0625 161.183594 73.71875 C 163.101562 73.035156 165.050781 72.453125 167.011719 71.917969 C 168.96875 71.378906 170.957031 70.945312 172.953125 70.5625 L 174.449219 70.289062 L 175.957031 70.054688 C 176.457031 69.96875 176.960938 69.90625 177.464844 69.839844 C 177.96875 69.777344 178.46875 69.703125 178.972656 69.652344 L 180.488281 69.496094 C 180.992188 69.449219 181.5 69.414062 182.003906 69.375 L 182.761719 69.316406 L 183.523438 69.277344 C 184.027344 69.25 184.535156 69.21875 185.039062 69.203125 C 186.054688 69.175781 187.066406 69.140625 188.078125 69.148438 C 189.089844 69.132812 190.105469 69.171875 191.117188 69.195312 C 193.140625 69.285156 195.160156 69.417969 197.171875 69.644531 C 201.195312 70.09375 205.183594 70.835938 209.089844 71.878906 C 212.992188 72.921875 216.816406 74.253906 220.507812 75.871094 C 227.898438 79.09375 234.773438 83.4375 240.832031 88.671875 C 246.894531 93.90625 252.144531 100.039062 256.347656 106.777344 C 258.4375 110.15625 260.296875 113.667969 261.855469 117.304688 C 262.644531 119.117188 263.335938 120.96875 263.984375 122.828125 C 264.636719 124.6875 265.183594 126.582031 265.679688 128.484375 C 267.65625 136.097656 268.433594 143.96875 267.984375 151.71875 C 267.527344 143.972656 266.046875 136.351562 263.519531 129.140625 C 262.253906 125.535156 260.75 122.027344 258.988281 118.660156 C 258.097656 116.984375 257.1875 115.320312 256.183594 113.714844 C 255.1875 112.105469 254.148438 110.523438 253.039062 108.996094 C 248.625 102.863281 243.359375 97.386719 237.445312 92.792969 C 231.535156 88.195312 224.988281 84.46875 218.066406 81.761719 C 211.144531 79.058594 203.851562 77.371094 196.480469 76.765625 C 194.636719 76.609375 192.789062 76.539062 190.941406 76.507812 C 189.09375 76.5 187.246094 76.535156 185.402344 76.644531 C 181.714844 76.875 178.050781 77.355469 174.445312 78.105469 C 167.234375 79.605469 160.253906 82.15625 153.789062 85.660156 C 152.179688 86.542969 150.585938 87.460938 149.039062 88.457031 C 147.496094 89.453125 145.976562 90.492188 144.507812 91.59375 C 143.039062 92.695312 141.601562 93.84375 140.210938 95.042969 C 138.824219 96.25 137.480469 97.503906 136.175781 98.800781 C 134.878906 100.101562 133.625 101.449219 132.417969 102.832031 C 131.214844 104.222656 130.070312 105.664062 128.964844 107.132812 C 127.863281 108.601562 126.824219 110.117188 125.828125 111.664062 C 124.832031 113.207031 123.917969 114.804688 123.03125 116.414062 C 119.523438 122.878906 116.972656 129.859375 115.472656 137.070312 C 114.722656 140.675781 114.242188 144.34375 114.011719 148.027344 C 113.964844 148.949219 113.910156 149.871094 113.898438 150.796875 C 113.867188 151.71875 113.878906 152.644531 113.875 153.566406 C 113.902344 155.417969 113.976562 157.265625 114.132812 159.109375 C 114.738281 166.480469 116.421875 173.773438 119.128906 180.699219 C 121.835938 187.621094 125.5625 194.167969 130.160156 200.082031 C 134.757812 205.996094 140.230469 211.261719 146.363281 215.671875 C 152.496094 220.089844 159.300781 223.628906 166.511719 226.152344 C 173.726562 228.675781 181.347656 230.15625 189.09375 230.609375 Z M 189.089844 230.609375 " fill-opacity="1" fill-rule="nonzero"/></g><path fill="#004aad" d="M 174.109375 74.921875 C 158.800781 95.46875 149.894531 120.710938 148.914062 146.3125 C 147.9375 171.917969 154.894531 197.765625 168.589844 219.421875 C 158.847656 195.472656 154.203125 169.261719 156.761719 143.535156 C 159.320312 117.808594 169.277344 92.628906 186.25 73.125 C 182.277344 73.601562 178.300781 74.078125 174.109375 74.921875 Z M 174.109375 74.921875 " fill-opacity="1" fill-rule="nonzero"/><path fill="#004aad" d="M 185.859375 71.761719 C 186.898438 121.386719 187.9375 171.015625 188.972656 220.644531 C 192.855469 171.726562 194.675781 122.648438 194.433594 73.578125 C 191.414062 73.136719 188.394531 72.695312 185.863281 71.761719 Z M 185.859375 71.761719 " fill-opacity="1" fill-rule="nonzero"/><path fill="#004aad" d="M 197.878906 73.261719 C 212.929688 93.070312 222.097656 117.292969 223.929688 142.101562 C 225.757812 166.910156 220.25 192.21875 208.269531 214.019531 C 222.984375 197.929688 230.421875 176.042969 231.503906 154.269531 C 232.585938 132.492188 227.691406 110.765625 220.183594 90.296875 C 218.605469 85.996094 216.84375 81.625 213.714844 78.28125 C 210.585938 74.9375 205.769531 72.792969 197.878906 73.261719 Z M 197.878906 73.261719 " fill-opacity="1" fill-rule="nonzero"/><g clip-path="url(#d4969afbd9)"><path fill="#004aad" d="M 111.394531 152.078125 C 163.714844 149.300781 216.246094 150.480469 268.386719 155.605469 C 216.527344 159.082031 164.59375 161.351562 112.664062 163.621094 C 111.214844 160.414062 110.710938 156.785156 111.394531 152.078125 Z M 111.394531 152.078125 " fill-opacity="1" fill-rule="nonzero"/></g><path fill="#004aad" d="M 120.738281 110.371094 C 163.660156 96.027344 211.445312 96.71875 253.933594 112.292969 C 231.296875 109.664062 208.53125 107.59375 185.746094 108.148438 C 162.964844 108.707031 140.09375 111.941406 118.652344 119.660156 C 119.730469 117.203125 120.804688 114.746094 120.734375 110.371094 Z M 120.738281 110.371094 " fill-opacity="1" fill-rule="nonzero"/><path fill="#004aad" d="M 114.382812 179.199219 C 131.4375 186.109375 149.882812 189.082031 168.269531 189.921875 C 186.652344 190.761719 205.0625 189.519531 223.425781 188.277344 C 217.996094 191.792969 211.257812 192.472656 204.804688 192.921875 C 178.71875 194.734375 152.476562 194.320312 126.460938 191.683594 C 124.257812 191.457031 121.914062 191.164062 120.207031 189.746094 C 117.292969 187.324219 117.171875 182.40625 114.382812 179.199219 Z M 114.382812 179.199219 " fill-opacity="1" fill-rule="nonzero"/></svg>